<?xml version="1.0" encoding="UTF-8" standalone="no"?>
<svg
   xmlns:dc="http://purl.org/dc/elements/1.1/"
   xmlns:cc="http://creativecommons.org/ns#"
   xmlns:rdf="http://www.w3.org/1999/02/22-rdf-syntax-ns#"
   xmlns:svg="http://www.w3.org/2000/svg"
   xmlns="http://www.w3.org/2000/svg"
   xmlns:sodipodi="http://sodipodi.sourceforge.net/DTD/sodipodi-0.dtd"
   xmlns:inkscape="http://www.inkscape.org/namespaces/inkscape"
   width="1040.4078"
   height="1040.3922"
   viewBox="0 0 106.53776 106.50461"
   preserveAspectRatio="xMinYMin meet"
   version="1.1"
   id="svg6"
   sodipodi:docname="git.svg"
   inkscape:version="0.92.3 (2405546, 2018-03-11)">
  <metadata
     id="metadata12">
    <rdf:RDF>
      <cc:Work
         rdf:about="">
        <dc:format>image/svg+xml</dc:format>
        <dc:type
           rdf:resource="http://purl.org/dc/dcmitype/StillImage" />
        <dc:title></dc:title>
      </cc:Work>
    </rdf:RDF>
  </metadata>
  <defs
     id="defs10" />
  <sodipodi:namedview
     pagecolor="#ffffff"
     bordercolor="#666666"
     borderopacity="1"
     objecttolerance="10"
     gridtolerance="10"
     guidetolerance="10"
     inkscape:pageopacity="0"
     inkscape:pageshadow="2"
     inkscape:window-width="1920"
     inkscape:window-height="1057"
     id="namedview8"
     showgrid="false"
     fit-margin-top="0"
     fit-margin-left="0"
     fit-margin-right="0"
     fit-margin-bottom="0"
     inkscape:zoom="0.1268"
     inkscape:cx="1249.9927"
     inkscape:cy="522.72624"
     inkscape:window-x="-8"
     inkscape:window-y="-8"
     inkscape:window-maximized="1"
     inkscape:current-layer="svg6" />
  <path
     d="M 104.52825,48.522995 58.012252,2.0099951 a 6.86,6.86 0 0 0 -9.703,0 l -9.659,9.6599999 12.253,12.252 a 8.145,8.145 0 0 1 8.383,1.953 8.157,8.157 0 0 1 1.936,8.434 l 11.807,11.809 c 2.857,-0.984 6.154,-0.347 8.435,1.938 a 8.161,8.161 0 0 1 0,11.545 8.164,8.164 0 0 1 -13.324,-8.88 l -11.012,-11.012 -0.001,28.98 a 8.248,8.248 0 0 1 2.159,1.544 8.164,8.164 0 0 1 0,11.547 c -3.19,3.19 -8.36,3.19 -11.545,0 a 8.164,8.164 0 0 1 2.672,-13.328 v -29.25 a 8.064,8.064 0 0 1 -2.672,-1.782 c -2.416,-2.413 -2.997,-5.958 -1.759,-8.925 l -12.078,-12.08 -31.8939997,31.892 a 6.863,6.863 0 0 0 0,9.706 L 48.526252,104.527 a 6.862,6.862 0 0 0 9.703,0 L 104.52825,58.229995 a 6.866,6.866 0 0 0 0,-9.707"
     id="path4"
     inkscape:connector-curvature="0"
     style="fill:#de4c36" />
</svg>
