<?xml version="1.0" encoding="UTF-8" standalone="no"?>
<svg
   xmlns:dc="http://purl.org/dc/elements/1.1/"
   xmlns:cc="http://creativecommons.org/ns#"
   xmlns:rdf="http://www.w3.org/1999/02/22-rdf-syntax-ns#"
   xmlns:svg="http://www.w3.org/2000/svg"
   xmlns="http://www.w3.org/2000/svg"
   xmlns:sodipodi="http://sodipodi.sourceforge.net/DTD/sodipodi-0.dtd"
   xmlns:inkscape="http://www.inkscape.org/namespaces/inkscape"
   width="2206.5095"
   height="1963.1676"
   viewBox="0 0 225.94657 201.03675"
   preserveAspectRatio="xMinYMin meet"
   version="1.1"
   id="svg10"
   sodipodi:docname="react.svg"
   inkscape:version="0.92.3 (2405546, 2018-03-11)">
  <metadata
     id="metadata16">
    <rdf:RDF>
      <cc:Work
         rdf:about="">
        <dc:format>image/svg+xml</dc:format>
        <dc:type
           rdf:resource="http://purl.org/dc/dcmitype/StillImage" />
        <dc:title />
      </cc:Work>
    </rdf:RDF>
  </metadata>
  <defs
     id="defs14" />
  <sodipodi:namedview
     pagecolor="#ffffff"
     bordercolor="#666666"
     borderopacity="1"
     objecttolerance="10"
     gridtolerance="10"
     guidetolerance="10"
     inkscape:pageopacity="0"
     inkscape:pageshadow="2"
     inkscape:window-width="1920"
     inkscape:window-height="1057"
     id="namedview12"
     showgrid="false"
     inkscape:pagecheckerboard="true"
     fit-margin-top="0"
     fit-margin-left="0"
     fit-margin-right="0"
     fit-margin-bottom="0"
     inkscape:zoom="0.29719893"
     inkscape:cx="306.59613"
     inkscape:cy="778.59191"
     inkscape:window-x="-8"
     inkscape:window-y="-8"
     inkscape:window-maximized="1"
     inkscape:current-layer="svg10" />
  <path
     style="fill:#61dafb;stroke-width:9.76521778;fill-opacity:1"
     d="M 1553.7754 0.005859375 C 1443.3578 -0.77734139 1301.8152 69.180471 1159.2188 193.26953 A 1475.8759 1475.8759 0 0 0 1104.2793 243.68555 A 1343.4303 1343.4303 0 0 0 1067.7188 209.91797 C 868.45944 32.991756 668.73131 -41.555695 548.80469 27.865234 C 433.80949 94.434722 399.74811 292.11189 448.1543 539.46484 A 1473.669 1473.669 0 0 0 464.46289 612.54883 C 436.20235 620.57584 408.90906 629.12929 382.79688 638.23047 C 149.19334 719.67238 7.5791225e-014 847.32385 0 979.7207 C 0 1116.4728 160.14882 1253.6343 403.47852 1336.7949 A 1254.2445 1254.2445 0 0 0 463.14453 1355.4473 A 1443.4261 1443.4261 0 0 0 445.81055 1434.2227 C 399.66013 1677.2789 435.70401 1870.2684 550.39648 1936.4277 C 668.85834 2004.7354 867.67801 1934.5242 1061.2832 1765.293 C 1076.5853 1751.9146 1091.946 1737.7259 1107.3262 1722.8535 A 1448.5724 1448.5724 0 0 0 1166.9727 1777.2754 C 1354.5039 1938.6456 1539.7118 2003.8078 1654.3066 1937.4727 C 1772.6611 1868.9599 1811.1151 1661.636 1761.1758 1409.3906 C 1757.3673 1390.1239 1752.9256 1370.4464 1747.9453 1350.4082 C 1761.9096 1346.2873 1775.6099 1342.0291 1788.9785 1337.5957 C 2041.9367 1253.7906 2206.5098 1118.2989 2206.5098 979.7207 C 2206.5098 846.84536 2052.5115 718.33446 1814.2012 636.29688 A 1478.1024 1478.1024 0 0 0 1743.1699 613.91602 A 1342.7174 1342.7174 0 0 0 1754.1465 565.4707 C 1807.9138 304.46598 1772.7587 94.200235 1652.7051 24.984375 C 1623.9294 8.3883881 1590.5813 0.26692629 1553.7754 0.005859375 z M 1549.9297 94.046875 C 1551.1966 94.035649 1552.4533 94.038767 1553.6992 94.056641 C 1574.0241 94.348229 1591.5357 98.513985 1605.627 106.64062 C 1679.5106 149.25603 1708.2481 321.09534 1661.8242 546.44727 A 1245.3094 1245.3094 0 0 1 1651.9043 590.3125 C 1560.3651 569.19033 1460.9546 553.46834 1356.877 543.70312 C 1296.2447 457.36885 1233.4251 378.86631 1170.3613 310.91992 A 1385.8797 1385.8797 0 0 1 1221.1016 264.37891 C 1348.8868 153.17002 1470.1158 94.75409 1549.9297 94.046875 z M 651.4082 96.136719 C 736.52976 95.255071 868.02775 158.67582 1005.125 280.4043 C 1016.1206 290.16951 1027.1645 300.39302 1038.2285 310.96875 C 974.12965 379.80377 910.78263 458.16958 850.26758 543.57617 C 746.49261 553.19491 647.15049 568.64344 555.82617 589.33594 A 1382.0224 1382.0224 0 0 1 540.66016 521.34961 L 540.66016 521.35938 C 499.18728 309.42486 526.72555 149.55887 596.0293 109.44336 C 611.02501 100.7633 629.71055 96.361453 651.4082 96.136719 z M 1104.3086 378.33008 C 1147.7833 425.42772 1191.328 478.02191 1234.1582 535.08008 A 2775.7142 2775.7142 0 0 0 973.36719 535.02148 C 1016.2365 478.49065 1060.1503 425.97457 1104.3086 378.33008 z M 1103.2637 626.23828 C 1171.5811 626.23828 1238.952 628.85568 1304.5547 633.85547 A 2838.7877 2838.7877 0 0 1 1410.8691 803.60352 A 3089.8905 3089.8905 0 0 1 1505.9922 980.64844 A 2839.7838 2839.7838 0 0 1 1411.1816 1159.2539 L 1411.1719 1159.2539 A 3090.4764 3090.4764 0 0 1 1305.3164 1330.0469 C 1239.8504 1334.7244 1172.1963 1337.1367 1103.2539 1337.1367 C 1034.5947 1337.1367 967.80199 1334.9979 903.47852 1330.8281 A 2673.6969 2673.6969 0 0 1 795.64062 1159.7715 A 2649.6354 2649.6354 0 0 1 701.50391 981.98633 A 2674.3414 2674.3414 0 0 1 795.35742 804.10156 L 795.35742 804.12109 A 2648.8347 2648.8347 0 0 1 902.3457 633.79688 C 967.96797 628.83614 1035.2489 626.23828 1103.2637 626.23828 z M 781.32422 645.85742 A 2771.271 2771.271 0 0 0 713.68164 757.02344 A 2785.4306 2785.4306 0 0 0 651.39844 871.13086 C 623.94841 806.02615 600.46404 742.015 581.28516 680.20117 C 644.2415 666.10996 711.37597 654.59729 781.32422 645.85742 z M 1425.3516 646.0332 C 1495.7588 654.91955 1563.2058 666.73498 1626.543 681.19727 C 1607.5301 742.14198 1583.8309 805.86991 1555.9219 871.19922 A 3285.2144 3285.2144 0 0 0 1492.4473 756.37891 A 2997.7459 2997.7459 0 0 0 1425.3516 646.0332 z M 489.77539 703.3457 C 517.39143 793.15641 553.60925 887.05862 597.31836 982.01562 C 553.04286 1078.3886 516.30743 1173.785 488.4375 1264.6504 A 1161.1625 1161.1625 0 0 1 433.9668 1247.5996 C 326.37363 1210.8238 237.51894 1163.033 176.61328 1110.8867 C 121.889 1064.0137 94.253906 1017.4828 94.253906 979.7207 C 94.253906 899.38223 214.04349 796.89553 413.83008 727.24023 A 1360.0604 1360.0604 0 0 1 489.77539 703.3457 z M 1717.9258 704.73242 C 1740.4932 711.27512 1762.4071 718.15851 1783.5195 725.43359 C 1987.7102 795.71386 2112.2559 899.64589 2112.2559 979.7207 C 2112.2559 1065.0199 1977.7389 1175.7569 1759.3398 1248.127 L 1759.3301 1248.127 C 1747.27 1252.1209 1734.8881 1255.9787 1722.2715 1259.7188 C 1694.343 1171.3142 1656.6504 1077.3045 1610.5391 980.18945 C 1654.5509 885.36916 1690.7785 792.57055 1717.9258 704.73242 z M 1103.2539 782.6875 C 994.44009 782.6875 906.22266 870.90684 906.22266 979.7207 C 906.22266 1088.5443 994.44009 1176.7637 1103.2539 1176.7637 C 1212.0775 1176.7637 1300.2871 1088.5443 1300.2871 979.7207 C 1300.2871 870.90684 1212.0775 782.6875 1103.2539 782.6875 z M 1556.8203 1089.4316 C 1586.3113 1156.6554 1611.1727 1221.692 1630.918 1283.5352 C 1566.9363 1298.1342 1497.8681 1309.891 1425.0879 1318.6211 A 3296.1221 3296.1221 0 0 0 1492.8281 1206.3418 A 2994.3281 2994.3281 0 0 0 1556.8203 1089.4316 z M 651.50586 1092.8203 A 2768.3805 2768.3805 0 0 0 714.0625 1206.9961 A 2785.7235 2785.7235 0 0 0 783.33594 1320.3105 C 711.07333 1312.2445 642.92316 1301.3178 579.98633 1287.6172 C 599.46794 1224.7097 623.46992 1159.3214 651.50586 1092.8203 z M 1656.7676 1374.3223 C 1661.2596 1392.4856 1665.2619 1410.2878 1668.709 1427.6992 C 1690.7881 1539.2375 1693.9427 1640.0834 1679.3145 1718.918 C 1666.1705 1789.7549 1639.7467 1836.9793 1607.0723 1855.8945 C 1537.5342 1896.1468 1388.8195 1843.8243 1228.4551 1705.8223 C 1210.0672 1690.0026 1191.5421 1673.1086 1172.9688 1655.2383 C 1235.1438 1587.2333 1297.2799 1508.1741 1357.9219 1420.3848 C 1464.5971 1410.9223 1565.3749 1395.4444 1656.7676 1374.3223 z M 554.53711 1378.541 C 644.9142 1398.5304 744.95954 1412.9144 851.88867 1421.5859 C 912.93105 1507.4906 976.86404 1586.4521 1041.2949 1655.5996 A 1160.7231 1160.7231 0 0 1 999.25586 1694.3086 C 913.6442 1769.1492 827.85621 1822.2335 752.25391 1848.9414 L 752.24414 1848.9414 C 684.30752 1872.9345 630.19785 1873.6184 597.49414 1854.7617 C 527.88767 1814.6267 498.96258 1659.6534 538.42383 1451.8008 A 1352.551 1352.551 0 0 1 554.53711 1378.541 z M 1236.4531 1428.4316 C 1193.4862 1486.8276 1150.0978 1540.2246 1106.916 1587.7715 C 1062.2401 1539.5606 1017.6818 1486.2417 974.1582 1428.8906 C 1016.4025 1430.5507 1059.4764 1431.3906 1103.2539 1431.3906 C 1148.2325 1431.3906 1192.6952 1430.3847 1236.4531 1428.4316 z "
     id="path4"
     transform="scale(0.10240427)" />
</svg>
